<?xml version="1.0" standalone="no"?>
<!DOCTYPE svg PUBLIC "-//W3C//DTD SVG 20010904//EN"
 "http://www.w3.org/TR/2001/REC-SVG-20010904/DTD/svg10.dtd">
<svg version="1.0" xmlns="http://www.w3.org/2000/svg"
 width="460.000000pt" height="460.000000pt" viewBox="0 0 460.000000 460.000000"
 preserveAspectRatio="xMidYMid meet">
<metadata>
Created by potrace 1.11, written by Peter Selinger 2001-2013
</metadata>
<g transform="translate(0.000000,460.000000) scale(0.100000,-0.100000)"
fill="#000000" stroke="none">
<path d="M1967 4562 c-26 -55 -42 -80 -69 -110 -14 -15 -55 -67 -91 -117 -36
-49 -75 -99 -85 -110 -10 -11 -42 -54 -70 -95 -28 -41 -76 -106 -107 -145 -82
-105 -113 -151 -166 -250 -84 -160 -96 -272 -50 -470 11 -49 28 -151 36 -225
8 -74 21 -163 27 -198 l12 -62 -46 -48 c-25 -26 -60 -69 -79 -97 -29 -44 -34
-59 -35 -117 l-1 -67 -244 -122 c-134 -68 -272 -140 -306 -161 -35 -21 -89
-53 -121 -70 -137 -75 -243 -144 -255 -164 -4 -8 -14 -14 -22 -14 -7 0 -22
-10 -32 -23 -22 -27 -127 -117 -206 -176 l-57 -43 0 -839 0 -839 2300 0 2300
0 0 1363 0 1363 -49 38 c-57 43 -53 24 -71 321 -11 178 -31 345 -50 418 -6 20
-14 52 -19 70 -12 46 -68 186 -92 229 -31 58 -61 152 -49 156 16 6 12 19 -8
24 -10 3 -19 12 -19 21 0 9 5 13 11 10 6 -3 1 5 -10 18 -29 33 -80 149 -65
149 5 0 7 8 4 18 -5 20 33 92 48 92 5 0 18 -15 29 -32 21 -35 28 -31 8 5 -24
45 -14 128 13 111 6 -3 9 2 8 12 -3 20 24 79 41 89 6 4 16 2 23 -3 7 -6 20 -6
32 -1 19 9 19 9 -2 5 -20 -3 -33 10 -33 34 0 12 57 -8 102 -37 41 -25 59 -30
40 -11 -28 28 -6 34 53 14 11 -4 8 0 -7 9 -16 8 -28 20 -28 26 0 6 -4 8 -9 5
-5 -3 -21 4 -36 16 -20 16 -24 23 -13 29 10 6 9 11 -7 23 -18 14 -169 15
-1240 16 l-1220 0 -18 -38z m2220 -254 c-3 -8 -6 -5 -6 6 -1 11 2 17 5 13 3
-3 4 -12 1 -19z m-2959 -3560 c17 -17 15 -84 -4 -102 -53 -54 -129 39 -77 96
18 20 63 24 81 6z m81 -30 l14 -33 6 29 c10 49 26 30 26 -31 0 -69 -21 -83
-47 -31 l-17 33 0 -27 c-1 -15 -6 -30 -12 -34 -22 -13 -31 14 -24 70 9 66 32
76 54 24z m127 22 c15 0 24 -6 24 -15 0 -8 -7 -15 -14 -15 -11 0 -16 -14 -18
-47 -2 -27 -7 -48 -13 -48 -5 0 -11 21 -13 48 -2 33 -7 47 -18 47 -15 0 -19
21 -7 34 4 3 13 4 21 1 7 -3 25 -5 38 -5z m118 -21 c47 -37 25 -119 -33 -119
-50 0 -72 94 -29 124 29 20 30 20 62 -5z m74 -46 c-3 -46 -2 -48 25 -51 26 -3
35 -16 19 -26 -5 -3 -25 -3 -45 1 l-37 6 0 52 c0 54 4 65 28 65 10 0 13 -11
10 -47z m160 25 c6 -6 12 -16 12 -24 0 -8 9 -4 24 11 25 25 55 25 77 -1 16
-20 3 -30 -16 -14 -22 18 -50 -9 -40 -39 8 -27 35 -28 28 -1 -6 23 0 25 28 10
10 -6 19 -21 19 -34 0 -18 -7 -25 -32 -30 -35 -7 -78 15 -78 39 0 9 -8 6 -25
-10 -29 -30 -45 -31 -74 -7 -15 11 -23 29 -23 51 -2 59 53 85 100 49z m173
-64 c-4 -75 -21 -79 -21 -5 0 45 3 62 12 59 8 -3 11 -22 9 -54z m105 42 c10
-8 16 -18 12 -22 -4 -4 -14 -2 -21 5 -23 18 -47 2 -47 -30 0 -34 23 -48 45
-29 18 15 30 7 21 -15 -9 -24 -34 -29 -61 -11 -35 23 -36 92 -2 106 30 12 31
12 53 -4z m117 -59 c21 -57 16 -87 -7 -54 -14 19 -41 23 -51 7 -13 -21 -27
-10 -20 17 13 52 35 95 46 91 7 -2 21 -30 32 -61z m88 -44 c16 -3 28 -11 26
-17 -5 -16 -29 -18 -60 -7 -24 9 -26 13 -21 58 8 73 18 84 22 25 3 -50 5 -53
33 -59z m173 29 c9 -32 16 -61 16 -65 0 -13 -23 -7 -35 10 -12 15 -16 16 -39
4 -14 -8 -28 -12 -31 -9 -3 3 4 31 15 62 29 77 52 76 74 -2z m74 27 l20 -32 7
32 c10 48 25 27 25 -37 0 -51 1 -54 14 -37 7 11 19 37 25 58 20 61 58 43 68
-33 8 -61 23 -59 23 3 0 62 8 69 61 58 l34 -7 3 -67 c3 -70 -10 -89 -28 -42
-10 27 -30 34 -30 11 0 -19 -26 -40 -34 -27 -4 6 -14 7 -23 4 -9 -4 -19 1 -25
10 -11 21 -32 22 -48 2 -9 -11 -16 -12 -26 -4 -7 6 -19 7 -25 3 -8 -4 -21 4
-36 22 -22 28 -23 28 -23 7 0 -14 -6 -23 -15 -23 -12 0 -15 13 -15 58 0 81 14
94 48 41z m394 -6 c35 -32 18 -56 -22 -30 -17 10 -22 9 -30 -3 -5 -8 -10 -19
-10 -25 0 -5 5 -17 10 -25 8 -12 13 -13 30 -2 40 24 55 5 23 -30 -34 -38 -87
-12 -99 49 -5 26 -1 37 19 57 30 30 53 33 79 9z m68 -24 c0 -25 27 -25 35 1 3
11 13 20 21 20 11 0 14 -15 14 -65 0 -58 -2 -65 -20 -65 -15 0 -20 7 -20 25 0
16 -6 25 -15 25 -9 0 -15 -10 -15 -26 0 -19 -5 -25 -17 -22 -14 2 -19 15 -21
56 -3 52 11 88 29 76 5 -3 9 -14 9 -25z m120 6 c15 -14 18 -14 30 0 15 18 40
20 40 3 0 -7 -9 -27 -19 -44 -11 -18 -21 -42 -23 -55 -5 -37 -32 -29 -38 11
-4 19 -12 45 -18 57 -23 42 -6 59 28 28z"/>
<path d="M1165 709 c-9 -27 19 -59 36 -42 15 15 7 57 -13 61 -10 2 -19 -6 -23
-19z"/>
<path d="M1507 694 c-12 -13 -7 -52 7 -57 18 -7 39 17 34 40 -3 18 -29 29 -41
17z"/>
<path d="M1720 650 c0 -23 5 -30 19 -30 21 0 33 22 25 45 -4 8 -15 15 -25 15
-14 0 -19 -7 -19 -30z"/>
<path d="M2740 600 c0 -5 7 -10 16 -10 8 0 12 5 9 10 -3 6 -10 10 -16 10 -5 0
-9 -4 -9 -10z"/>
<path d="M4592 4580 c0 -14 2 -19 5 -12 2 6 2 18 0 25 -3 6 -5 1 -5 -13z"/>
<path d="M4267 4353 c-4 -3 -7 -11 -7 -17 0 -6 5 -5 12 2 6 6 9 14 7 17 -3 3
-9 2 -12 -2z"/>
<path d="M4191 4214 c0 -11 3 -14 6 -6 3 7 2 16 -1 19 -3 4 -6 -2 -5 -13z"/>
</g>
</svg>
